<svg width="188" height="30" viewBox="0 0 188 30" fill="none" xmlns="http://www.w3.org/2000/svg">
<path d="M14.7372 5.25012C14.5325 4.82744 14.2129 4.47097 13.815 4.22155C13.417 3.97213 12.9569 3.83984 12.4872 3.83984C12.0176 3.83984 11.5575 3.97213 11.1595 4.22155C10.7616 4.47097 10.442 4.82744 10.2372 5.25012L7.98724 10.5001L2.23724 10.8751C1.75277 10.9263 1.29381 11.118 0.916785 11.4265C0.539756 11.735 0.261082 12.1469 0.115016 12.6117C-0.0310506 13.0765 -0.0381447 13.5738 0.0946053 14.0425C0.227355 14.5112 0.494165 14.931 0.86224 15.2501L5.23724 19.0001L3.98724 24.5001C3.36224 26.6251 5.73724 28.2501 7.61224 27.1251L12.4872 24.2501L17.3622 27.1251C19.2372 28.3751 21.6122 26.6251 21.1122 24.5001L19.8622 19.0001L24.1122 15.2501C24.4803 14.931 24.7471 14.5112 24.8799 14.0425C25.0126 13.5738 25.0055 13.0765 24.8595 12.6117C24.7134 12.1469 24.4347 11.735 24.0577 11.4265C23.6807 11.118 23.2217 10.9263 22.7372 10.8751L16.9872 10.5001L14.7372 5.25012Z" fill="#DAA520"/>
<path d="M54.7372 5.25012C54.5325 4.82744 54.2129 4.47097 53.815 4.22155C53.417 3.97213 52.9569 3.83984 52.4872 3.83984C52.0176 3.83984 51.5575 3.97213 51.1595 4.22155C50.7616 4.47097 50.442 4.82744 50.2372 5.25012L47.9872 10.5001L42.2372 10.8751C41.7528 10.9263 41.2938 11.118 40.9168 11.4265C40.5398 11.735 40.2611 12.1469 40.115 12.6117C39.9689 13.0765 39.9619 13.5738 40.0946 14.0425C40.2274 14.5112 40.4942 14.931 40.8622 15.2501L45.2372 19.0001L43.9872 24.5001C43.3622 26.6251 45.7372 28.2501 47.6122 27.1251L52.4872 24.2501L57.3622 27.1251C59.2372 28.3751 61.6122 26.6251 61.1122 24.5001L59.8622 19.0001L64.1122 15.2501C64.4803 14.931 64.7471 14.5112 64.8799 14.0425C65.0126 13.5738 65.0055 13.0765 64.8595 12.6117C64.7134 12.1469 64.4347 11.735 64.0577 11.4265C63.6807 11.118 63.2217 10.9263 62.7372 10.8751L56.9872 10.5001L54.7372 5.25012Z" fill="#DAA520"/>
<path d="M94.7372 5.25012C94.5325 4.82744 94.2129 4.47097 93.815 4.22155C93.417 3.97213 92.9569 3.83984 92.4872 3.83984C92.0176 3.83984 91.5575 3.97213 91.1595 4.22155C90.7616 4.47097 90.442 4.82744 90.2372 5.25012L87.9872 10.5001L82.2372 10.8751C81.7528 10.9263 81.2938 11.118 80.9168 11.4265C80.5398 11.735 80.2611 12.1469 80.115 12.6117C79.9689 13.0765 79.9619 13.5738 80.0946 14.0425C80.2274 14.5112 80.4942 14.931 80.8622 15.2501L85.2372 19.0001L83.9872 24.5001C83.3622 26.6251 85.7372 28.2501 87.6122 27.1251L92.4872 24.2501L97.3622 27.1251C99.2372 28.3751 101.612 26.6251 101.112 24.5001L99.8622 19.0001L104.112 15.2501C104.48 14.931 104.747 14.5112 104.88 14.0425C105.013 13.5738 105.006 13.0765 104.859 12.6117C104.713 12.1469 104.435 11.735 104.058 11.4265C103.681 11.118 103.222 10.9263 102.737 10.8751L96.9872 10.5001L94.7372 5.25012Z" fill="#DAA520"/>
<path d="M134.737 5.25012C134.533 4.82744 134.213 4.47097 133.815 4.22155C133.417 3.97213 132.957 3.83984 132.487 3.83984C132.018 3.83984 131.557 3.97213 131.16 4.22155C130.762 4.47097 130.442 4.82744 130.237 5.25012L127.987 10.5001L122.237 10.8751C121.753 10.9263 121.294 11.118 120.917 11.4265C120.54 11.735 120.261 12.1469 120.115 12.6117C119.969 13.0765 119.962 13.5738 120.095 14.0425C120.227 14.5112 120.494 14.931 120.862 15.2501L125.237 19.0001L123.987 24.5001C123.362 26.6251 125.737 28.2501 127.612 27.1251L132.487 24.2501L137.362 27.1251C139.237 28.3751 141.612 26.6251 141.112 24.5001L139.862 19.0001L144.112 15.2501C144.48 14.931 144.747 14.5112 144.88 14.0425C145.013 13.5738 145.006 13.0765 144.859 12.6117C144.713 12.1469 144.435 11.735 144.058 11.4265C143.681 11.118 143.222 10.9263 142.737 10.8751L136.987 10.5001L134.737 5.25012Z" fill="#DAA520"/>
<path d="M174.737 5.25012C174.533 4.82744 174.213 4.47097 173.815 4.22155C173.417 3.97213 172.957 3.83984 172.487 3.83984C172.018 3.83984 171.557 3.97213 171.16 4.22155C170.762 4.47097 170.442 4.82744 170.237 5.25012L167.987 10.5001L162.237 10.8751C161.753 10.9263 161.294 11.118 160.917 11.4265C160.54 11.735 160.261 12.1469 160.115 12.6117C159.969 13.0765 159.962 13.5738 160.095 14.0425C160.227 14.5112 160.494 14.931 160.862 15.2501L165.237 19.0001L163.987 24.5001C163.362 26.6251 165.737 28.2501 167.612 27.1251L172.487 24.2501L177.362 27.1251C179.237 28.3751 181.612 26.6251 181.112 24.5001L179.862 19.0001L184.112 15.2501C184.48 14.931 184.747 14.5112 184.88 14.0425C185.013 13.5738 185.006 13.0765 184.859 12.6117C184.713 12.1469 184.435 11.735 184.058 11.4265C183.681 11.118 183.222 10.9263 182.737 10.8751L176.987 10.5001L174.737 5.25012Z" fill="#DAA520"/>
</svg>
