<svg width="80" height="48" viewBox="0 0 80 48" fill="none" xmlns="http://www.w3.org/2000/svg">
<path d="M17.7 48C7.7 48 0.1 40.9 0.1 28C0.1 16.6 6.4 6.9 15.1 3C19.5 0.999994 26 -5.00679e-06 34.5 -5.00679e-06V2.6C17.3 2.6 10.1 8.5 10.1 18.6C11.2 17.2 15.5 15.8 19.7 15.8C28.4 15.8 34.5 22.8 34.5 31.4C34.5 41 27.9 48 17.7 48ZM62.3289 48C52.3289 48 44.7289 40.9 44.7289 28C44.7289 16.6 51.0289 6.9 59.7289 3C64.1289 0.999994 70.6289 -5.00679e-06 79.1289 -5.00679e-06V2.6C61.9289 2.6 54.7289 8.5 54.7289 18.6C55.8289 17.2 60.1289 15.8 64.3289 15.8C73.0289 15.8 79.1289 22.8 79.1289 31.4C79.1289 41 72.5289 48 62.3289 48Z" fill="black"/>
</svg>
