<svg width="80" height="48" viewBox="0 0 80 48" fill="none" xmlns="http://www.w3.org/2000/svg">
<path d="M0.1 48V45.4L3.5 45.3C10.2 45.3 18 43.2 21.7 38.4C23.6 35.9 24.5 32.9 24.5 29.4C23.1 31 19 32.2 14.9 32.2C6.2 32.2 0.1 25.2 0.1 16.6C0.1 6.9 6.8 -5.00679e-06 16.9 -5.00679e-06C26.9 -5.00679e-06 34.5 7.2 34.5 20C34.5 28.4 31 36.2 25.5 41.1C20.1 46 13.7 48 0.1 48ZM44.7289 48V45.4L48.1289 45.3C54.8289 45.3 62.6289 43.2 66.3289 38.4C68.2289 35.9 69.1289 32.9 69.1289 29.4C67.7289 31 63.6289 32.2 59.5289 32.2C50.8289 32.2 44.7289 25.2 44.7289 16.6C44.7289 6.9 51.4289 -5.00679e-06 61.5289 -5.00679e-06C71.5289 -5.00679e-06 79.1289 7.2 79.1289 20C79.1289 28.4 75.6289 36.2 70.1289 41.1C64.7289 46 58.3289 48 44.7289 48Z" fill="black"/>
</svg>
